<?xml version="1.0" encoding="UTF-8" standalone="no"?>
<!DOCTYPE svg PUBLIC "-//W3C//DTD SVG 1.1//EN"
 "http://www.w3.org/Graphics/SVG/1.1/DTD/svg11.dtd">
<!-- Generated by graphviz version 2.47.3 (20210619.2315)
 -->
<!-- Title: snakemake_dag Pages: 1 -->
<svg width="231pt" height="215pt"
 viewBox="0.00 0.00 230.50 215.00" xmlns="http://www.w3.org/2000/svg" xmlns:xlink="http://www.w3.org/1999/xlink">
<g id="graph0" class="graph" transform="scale(1 1) rotate(0) translate(4 211)">
<title>snakemake_dag</title>
<polygon fill="white" stroke="transparent" points="-4,4 -4,-211 226.5,-211 226.5,4 -4,4"/>
<!-- 0 -->
<g id="node1" class="node">
<title>0</title>
<path fill="none" stroke="#59d856" stroke-width="2" d="M129,-36C129,-36 99,-36 99,-36 93,-36 87,-30 87,-24 87,-24 87,-12 87,-12 87,-6 93,0 99,0 99,0 129,0 129,0 135,0 141,-6 141,-12 141,-12 141,-24 141,-24 141,-30 135,-36 129,-36"/>
<text text-anchor="middle" x="114" y="-15.5" font-family="sans" font-size="10.00">all</text>
</g>
<!-- 1 -->
<g id="node2" class="node">
<title>1</title>
<path fill="none" stroke="#56d8d8" stroke-width="2" d="M110,-135C110,-135 12,-135 12,-135 6,-135 0,-129 0,-123 0,-123 0,-84 0,-84 0,-78 6,-72 12,-72 12,-72 110,-72 110,-72 116,-72 122,-78 122,-84 122,-84 122,-123 122,-123 122,-129 116,-135 110,-135"/>
<text text-anchor="middle" x="61" y="-123" font-family="sans" font-size="10.00">spring</text>
<text text-anchor="middle" x="61" y="-112" font-family="sans" font-size="10.00">flowcell: HKTG2BGXG</text>
<text text-anchor="middle" x="61" y="-101" font-family="sans" font-size="10.00">lane: lane1</text>
<text text-anchor="middle" x="61" y="-90" font-family="sans" font-size="10.00">sample: HD827sonic</text>
<text text-anchor="middle" x="61" y="-79" font-family="sans" font-size="10.00">type: N</text>
</g>
<!-- 1&#45;&gt;0 -->
<g id="edge1" class="edge">
<title>1&#45;&gt;0</title>
<path fill="none" stroke="grey" stroke-width="2" d="M80.43,-71.88C86.14,-62.9 92.31,-53.18 97.78,-44.55"/>
<polygon fill="grey" stroke="grey" stroke-width="2" points="100.79,-46.34 103.19,-36.03 94.88,-42.59 100.79,-46.34"/>
</g>
<!-- 2 -->
<g id="node3" class="node">
<title>2</title>
<path fill="none" stroke="#d6d856" stroke-width="2" d="M184,-121.5C184,-121.5 152,-121.5 152,-121.5 146,-121.5 140,-115.5 140,-109.5 140,-109.5 140,-97.5 140,-97.5 140,-91.5 146,-85.5 152,-85.5 152,-85.5 184,-85.5 184,-85.5 190,-85.5 196,-91.5 196,-97.5 196,-97.5 196,-109.5 196,-109.5 196,-115.5 190,-121.5 184,-121.5"/>
<text text-anchor="middle" x="168" y="-101" font-family="sans" font-size="10.00">crumble</text>
</g>
<!-- 2&#45;&gt;0 -->
<g id="edge2" class="edge">
<title>2&#45;&gt;0</title>
<path fill="none" stroke="grey" stroke-width="2" d="M156.81,-85.2C149.28,-73.56 139.22,-57.99 130.74,-44.88"/>
<polygon fill="grey" stroke="grey" stroke-width="2" points="133.54,-42.78 125.17,-36.28 127.67,-46.58 133.54,-42.78"/>
</g>
<!-- 3 -->
<g id="node4" class="node">
<title>3</title>
<path fill="none" stroke="#d85656" stroke-width="2" d="M210.5,-207C210.5,-207 125.5,-207 125.5,-207 119.5,-207 113.5,-201 113.5,-195 113.5,-195 113.5,-183 113.5,-183 113.5,-177 119.5,-171 125.5,-171 125.5,-171 210.5,-171 210.5,-171 216.5,-171 222.5,-177 222.5,-183 222.5,-183 222.5,-195 222.5,-195 222.5,-201 216.5,-207 210.5,-207"/>
<text text-anchor="middle" x="168" y="-192" font-family="sans" font-size="10.00">samtools_view</text>
<text text-anchor="middle" x="168" y="-181" font-family="sans" font-size="10.00">file: HD827sonic_N</text>
</g>
<!-- 3&#45;&gt;2 -->
<g id="edge3" class="edge">
<title>3&#45;&gt;2</title>
<path fill="none" stroke="grey" stroke-width="2" d="M168,-170.7C168,-159.5 168,-144.69 168,-131.91"/>
<polygon fill="grey" stroke="grey" stroke-width="2" points="171.5,-131.78 168,-121.78 164.5,-131.78 171.5,-131.78"/>
</g>
</g>
</svg>
