<?xml version="1.0" encoding="UTF-8" standalone="no"?>
<!DOCTYPE svg PUBLIC "-//W3C//DTD SVG 1.1//EN"
 "http://www.w3.org/Graphics/SVG/1.1/DTD/svg11.dtd">
<!-- Generated by graphviz version 2.47.3 (20210619.2315)
 -->
<!-- Title: snakemake_dag Pages: 1 -->
<svg width="130pt" height="143pt"
 viewBox="0.00 0.00 130.00 143.00" xmlns="http://www.w3.org/2000/svg" xmlns:xlink="http://www.w3.org/1999/xlink">
<g id="graph0" class="graph" transform="scale(1 1) rotate(0) translate(4 139)">
<title>snakemake_dag</title>
<polygon fill="white" stroke="transparent" points="-4,4 -4,-139 126,-139 126,4 -4,4"/>
<!-- 0 -->
<g id="node1" class="node">
<title>0</title>
<path fill="none" stroke="#d85656" stroke-width="2" d="M76,-36C76,-36 46,-36 46,-36 40,-36 34,-30 34,-24 34,-24 34,-12 34,-12 34,-6 40,0 46,0 46,0 76,0 76,0 82,0 88,-6 88,-12 88,-12 88,-24 88,-24 88,-30 82,-36 76,-36"/>
<text text-anchor="middle" x="61" y="-15.5" font-family="sans" font-size="10.00">all</text>
</g>
<!-- 1 -->
<g id="node2" class="node">
<title>1</title>
<path fill="none" stroke="#59d856" stroke-width="2" d="M110,-135C110,-135 12,-135 12,-135 6,-135 0,-129 0,-123 0,-123 0,-84 0,-84 0,-78 6,-72 12,-72 12,-72 110,-72 110,-72 116,-72 122,-78 122,-84 122,-84 122,-123 122,-123 122,-129 116,-135 110,-135"/>
<text text-anchor="middle" x="61" y="-123" font-family="sans" font-size="10.00">spring</text>
<text text-anchor="middle" x="61" y="-112" font-family="sans" font-size="10.00">flowcell: HKTG2BGXG</text>
<text text-anchor="middle" x="61" y="-101" font-family="sans" font-size="10.00">lane: lane1</text>
<text text-anchor="middle" x="61" y="-90" font-family="sans" font-size="10.00">sample: HD827sonic</text>
<text text-anchor="middle" x="61" y="-79" font-family="sans" font-size="10.00">type: N</text>
</g>
<!-- 1&#45;&gt;0 -->
<g id="edge1" class="edge">
<title>1&#45;&gt;0</title>
<path fill="none" stroke="grey" stroke-width="2" d="M61,-71.88C61,-63.47 61,-54.4 61,-46.19"/>
<polygon fill="grey" stroke="grey" stroke-width="2" points="64.5,-46.03 61,-36.03 57.5,-46.03 64.5,-46.03"/>
</g>
</g>
</svg>
